<?xml version="1.0" encoding="UTF-8" standalone="no"?>
<!-- Created with Inkscape (http://www.inkscape.org/) -->

<svg
   xmlns:dc="http://purl.org/dc/elements/1.1/"
   xmlns:cc="http://creativecommons.org/ns#"
   xmlns:rdf="http://www.w3.org/1999/02/22-rdf-syntax-ns#"
   xmlns:svg="http://www.w3.org/2000/svg"
   xmlns="http://www.w3.org/2000/svg"
   xmlns:sodipodi="http://sodipodi.sourceforge.net/DTD/sodipodi-0.dtd"
   xmlns:inkscape="http://www.inkscape.org/namespaces/inkscape"
   width="600"
   height="600"
   viewBox="0 0 158.75 158.75"
   version="1.1"
   id="svg5891"
   inkscape:version="0.92.4 (5da689c313, 2019-01-14)"
   sodipodi:docname="WKID.svg">
  <defs
     id="defs5885">
    <marker
       inkscape:stockid="Arrow2Send"
       orient="auto"
       refY="0.0"
       refX="0.0"
       id="Arrow2Send"
       style="overflow:visible;"
       inkscape:isstock="true">
      <path
         id="path6486"
         style="fill-rule:evenodd;stroke-width:0.625;stroke-linejoin:round;stroke:#000000;stroke-opacity:1;fill:#000000;fill-opacity:1"
         d="M 8.7185878,4.0337352 L -2.2072895,0.016013256 L 8.7185884,-4.0017078 C 6.9730900,-1.6296469 6.9831476,1.6157441 8.7185878,4.0337352 z "
         transform="scale(0.3) rotate(180) translate(-2.3,0)" />
    </marker>
    <marker
       inkscape:isstock="true"
       style="overflow:visible;"
       id="marker8054"
       refX="0.0"
       refY="0.0"
       orient="auto"
       inkscape:stockid="Arrow2Mend">
      <path
         transform="scale(0.6) rotate(180) translate(0,0)"
         d="M 8.7185878,4.0337352 L -2.2072895,0.016013256 L 8.7185884,-4.0017078 C 6.9730900,-1.6296469 6.9831476,1.6157441 8.7185878,4.0337352 z "
         style="fill-rule:evenodd;stroke-width:0.625;stroke-linejoin:round;stroke:#000000;stroke-opacity:1;fill:#000000;fill-opacity:1"
         id="path8052" />
    </marker>
    <marker
       inkscape:stockid="Arrow2Mend"
       orient="auto"
       refY="0.0"
       refX="0.0"
       id="Arrow2Mend"
       style="overflow:visible;"
       inkscape:isstock="true"
       inkscape:collect="always">
      <path
         id="path6480"
         style="fill-rule:evenodd;stroke-width:0.625;stroke-linejoin:round;stroke:#000e98;stroke-opacity:1;fill:#000e98;fill-opacity:1"
         d="M 8.7185878,4.0337352 L -2.2072895,0.016013256 L 8.7185884,-4.0017078 C 6.9730900,-1.6296469 6.9831476,1.6157441 8.7185878,4.0337352 z "
         transform="scale(0.6) rotate(180) translate(0,0)" />
    </marker>
    <marker
       inkscape:stockid="Arrow2Lend"
       orient="auto"
       refY="0.0"
       refX="0.0"
       id="Arrow2Lend"
       style="overflow:visible;"
       inkscape:isstock="true">
      <path
         id="path6474"
         style="fill-rule:evenodd;stroke-width:0.625;stroke-linejoin:round;stroke:#000e98;stroke-opacity:1;fill:#000e98;fill-opacity:1"
         d="M 8.7185878,4.0337352 L -2.2072895,0.016013256 L 8.7185884,-4.0017078 C 6.9730900,-1.6296469 6.9831476,1.6157441 8.7185878,4.0337352 z "
         transform="scale(1.1) rotate(180) translate(1,0)" />
    </marker>
    <marker
       inkscape:stockid="Arrow2Mend"
       orient="auto"
       refY="0"
       refX="0"
       id="Arrow2Mend-6"
       style="overflow:visible"
       inkscape:isstock="true">
      <path
         inkscape:connector-curvature="0"
         id="path6480-8"
         style="fill:#fe0e00;fill-opacity:1;fill-rule:evenodd;stroke:#fe0e00;stroke-width:0.625;stroke-linejoin:round;stroke-opacity:1"
         d="M 8.7185878,4.0337352 -2.2072895,0.01601326 8.7185884,-4.0017078 c -1.7454984,2.3720609 -1.7354408,5.6174519 -6e-7,8.035443 z"
         transform="scale(-0.6)" />
    </marker>
    <marker
       inkscape:stockid="Arrow2Mend"
       orient="auto"
       refY="0"
       refX="0"
       id="Arrow2Mend-1"
       style="overflow:visible"
       inkscape:isstock="true"
       inkscape:collect="always">
      <path
         inkscape:connector-curvature="0"
         id="path6480-4"
         style="fill:#000e01;fill-opacity:1;fill-rule:evenodd;stroke:#000e01;stroke-width:0.625;stroke-linejoin:round;stroke-opacity:1"
         d="M 8.7185878,4.0337352 -2.2072895,0.01601326 8.7185884,-4.0017078 c -1.7454984,2.3720609 -1.7354408,5.6174519 -6e-7,8.035443 z"
         transform="scale(-0.6)" />
    </marker>
    <marker
       inkscape:stockid="Arrow2Mend"
       orient="auto"
       refY="0"
       refX="0"
       id="Arrow2Mend-1-6"
       style="overflow:visible"
       inkscape:isstock="true"
       inkscape:collect="always">
      <path
         inkscape:connector-curvature="0"
         id="path6480-4-8"
         style="fill:#000e01;fill-opacity:1;fill-rule:evenodd;stroke:#000e01;stroke-width:0.625;stroke-linejoin:round;stroke-opacity:1"
         d="M 8.7185878,4.0337352 -2.2072895,0.01601326 8.7185884,-4.0017078 c -1.7454984,2.3720609 -1.7354408,5.6174519 -6e-7,8.035443 z"
         transform="scale(-0.6)" />
    </marker>
    <marker
       inkscape:stockid="Arrow2Mend"
       orient="auto"
       refY="0"
       refX="0"
       id="Arrow2Mend-1-6-4"
       style="overflow:visible"
       inkscape:isstock="true"
       inkscape:collect="always">
      <path
         inkscape:connector-curvature="0"
         id="path6480-4-8-5"
         style="fill:#000e01;fill-opacity:1;fill-rule:evenodd;stroke:#000e01;stroke-width:0.625;stroke-linejoin:round;stroke-opacity:1"
         d="M 8.7185878,4.0337352 -2.2072895,0.01601326 8.7185884,-4.0017078 c -1.7454984,2.3720609 -1.7354408,5.6174519 -6e-7,8.035443 z"
         transform="scale(-0.6)" />
    </marker>
  </defs>
  <sodipodi:namedview
     id="base"
     pagecolor="#ffffff"
     bordercolor="#666666"
     borderopacity="1.0"
     inkscape:pageopacity="0.0"
     inkscape:pageshadow="2"
     inkscape:zoom="0.7"
     inkscape:cx="52.856763"
     inkscape:cy="325.0894"
     inkscape:document-units="mm"
     inkscape:current-layer="text9735-3-4"
     showgrid="false"
     units="px"
     inkscape:window-width="1366"
     inkscape:window-height="705"
     inkscape:window-x="-8"
     inkscape:window-y="-8"
     inkscape:window-maximized="1" />
  <metadata
     id="metadata5888">
    <rdf:RDF>
      <cc:Work
         rdf:about="">
        <dc:format>image/svg+xml</dc:format>
        <dc:type
           rdf:resource="http://purl.org/dc/dcmitype/StillImage" />
        <dc:title></dc:title>
      </cc:Work>
    </rdf:RDF>
  </metadata>
  <g
     inkscape:label="Layer 1"
     inkscape:groupmode="layer"
     id="layer1"
     transform="translate(0,-138.24998)">
    <g
       aria-label="Data"
       style="font-style:normal;font-weight:normal;font-size:10.58333302px;line-height:1.25;font-family:sans-serif;letter-spacing:0px;word-spacing:0px;fill:#000000;fill-opacity:1;stroke:none;stroke-width:0.26458332"
       id="text6449">
      <path
         d="m 4.3504175,285.54314 v 5.99964 h 1.2609049 q 1.5968017,0 2.3357747,-0.72347 0.7441406,-0.72347 0.7441406,-2.2841 0,-1.5503 -0.7441406,-2.2686 -0.738973,-0.72347 -2.3357747,-0.72347 z m -1.0438639,-0.85783 h 2.1445718 q 2.2427571,0 3.2917887,0.93535 1.0490315,0.93017 1.0490315,2.91455 0,1.99471 -1.0541992,2.93005 -1.0541991,0.93534 -3.286621,0.93534 H 3.3065536 Z"
         style="stroke-width:0.26458332"
         id="path10001" />
      <path
         d="m 14.039748,289.49122 q -1.152385,0 -1.596802,0.26355 -0.444417,0.26355 -0.444417,0.89917 0,0.50643 0.330729,0.80615 0.335897,0.29456 0.909505,0.29456 0.79065,0 1.266073,-0.55811 0.480591,-0.56327 0.480591,-1.49345 v -0.21187 z m 1.896525,-0.39274 v 3.30212 h -0.950846 v -0.8785 q -0.325562,0.5271 -0.81132,0.78032 -0.485759,0.24805 -1.188558,0.24805 -0.888835,0 -1.415935,-0.4961 -0.521931,-0.50126 -0.521931,-1.33842 0,-0.97668 0.651123,-1.47278 0.65629,-0.49609 1.953369,-0.49609 h 1.333252 v -0.093 q 0,-0.65629 -0.434082,-1.01286 -0.428915,-0.36173 -1.209229,-0.36173 -0.496094,0 -0.966349,0.11886 -0.470256,0.11885 -0.904338,0.35656 v -0.8785 q 0.521932,-0.20153 1.012858,-0.29972 0.490926,-0.10335 0.956014,-0.10335 1.255738,0 1.875855,0.65112 0.620117,0.65112 0.620117,1.97404 z"
         style="stroke-width:0.26458332"
         id="path10003" />
      <path
         d="m 18.840488,284.96953 v 1.64331 h 1.958537 v 0.73898 h -1.958537 v 3.14192 q 0,0.70797 0.191203,0.90951 0.19637,0.20154 0.790649,0.20154 h 0.976685 v 0.79581 H 19.82234 q -1.100708,0 -1.519287,-0.40824 -0.418579,-0.41341 -0.418579,-1.49862 v -3.14192 h -0.697632 v -0.73898 h 0.697632 v -1.64331 z"
         style="stroke-width:0.26458332"
         id="path10005" />
      <path
         d="m 24.685094,289.49122 q -1.152385,0 -1.596802,0.26355 -0.444417,0.26355 -0.444417,0.89917 0,0.50643 0.330729,0.80615 0.335896,0.29456 0.909505,0.29456 0.790649,0 1.266072,-0.55811 0.480591,-0.56327 0.480591,-1.49345 v -0.21187 z m 1.896525,-0.39274 v 3.30212 h -0.950847 v -0.8785 q -0.325561,0.5271 -0.81132,0.78032 -0.485758,0.24805 -1.188558,0.24805 -0.888834,0 -1.415934,-0.4961 -0.521932,-0.50126 -0.521932,-1.33842 0,-0.97668 0.651123,-1.47278 0.656291,-0.49609 1.953369,-0.49609 h 1.333252 v -0.093 q 0,-0.65629 -0.434082,-1.01286 -0.428914,-0.36173 -1.209228,-0.36173 -0.496094,0 -0.96635,0.11886 -0.470255,0.11885 -0.904337,0.35656 v -0.8785 q 0.521932,-0.20153 1.012858,-0.29972 0.490926,-0.10335 0.956014,-0.10335 1.255737,0 1.875854,0.65112 0.620118,0.65112 0.620118,1.97404 z"
         style="stroke-width:0.26458332"
         id="path10007" />
    </g>
    <path
       style="fill:none;stroke:#000e98;stroke-width:1.32291663;stroke-linecap:butt;stroke-linejoin:miter;stroke-miterlimit:3.20000005;stroke-dasharray:none;stroke-opacity:1;marker-end:url(#Arrow2Mend)"
       d="m 30.238094,288.63061 c 120.952376,0 120.952376,0 120.952376,0"
       id="path6451"
       inkscape:connector-curvature="0" />
    <path
       style="fill:none;stroke:#fe0e00;stroke-width:1.3922689;stroke-linecap:butt;stroke-linejoin:miter;stroke-miterlimit:3.20000005;stroke-dasharray:none;stroke-opacity:1;marker-end:url(#Arrow2Mend-6)"
       d="m 8.7061658,279.47916 c 0,-133.96635 0,-133.96635 0,-133.96635"
       id="path6451-8"
       inkscape:connector-curvature="0" />
    <g
       aria-label="Understanding"
       transform="translate(68.640492,-3.5529763)"
       style="font-style:normal;font-variant:normal;font-weight:normal;font-stretch:normal;font-size:5.64444447px;line-height:1.25;font-family:sans-serif;-inkscape-font-specification:'sans-serif, Normal';font-variant-ligatures:normal;font-variant-caps:normal;font-variant-numeric:normal;font-feature-settings:normal;text-align:start;letter-spacing:0px;word-spacing:0px;writing-mode:lr-tb;text-anchor:start;fill:#000000;fill-opacity:1;stroke:none;stroke-width:0.26458332"
       id="text7906">
      <path
         d="m 30.728676,284.51579 h 0.559483 v 2.49976 q 0,0.66146 0.239779,0.95361 0.239779,0.28938 0.777214,0.28938 0.534678,0 0.774457,-0.28938 0.239779,-0.29215 0.239779,-0.95361 v -2.49976 h 0.559483 v 2.56867 q 0,0.80477 -0.399631,1.21543 -0.396875,0.41065 -1.174088,0.41065 -0.77997,0 -1.179601,-0.41065 -0.396875,-0.41066 -0.396875,-1.21543 z"
         style="font-style:normal;font-variant:normal;font-weight:normal;font-stretch:normal;font-size:5.64444447px;font-family:sans-serif;-inkscape-font-specification:'sans-serif, Normal';font-variant-ligatures:normal;font-variant-caps:normal;font-variant-numeric:normal;font-feature-settings:normal;text-align:start;writing-mode:lr-tb;text-anchor:start;stroke-width:0.26458332"
         id="path9974" />
      <path
         d="m 37.470038,286.76751 v 1.86311 h -0.507119 v -1.84658 q 0,-0.43821 -0.170876,-0.65594 -0.170877,-0.21773 -0.51263,-0.21773 -0.410656,0 -0.647678,0.26183 -0.237023,0.26182 -0.237023,0.71382 v 1.7446 h -0.509874 v -3.08681 h 0.509874 v 0.47956 q 0.181901,-0.27837 0.427192,-0.41617 0.248047,-0.1378 0.570508,-0.1378 0.531922,0 0.804774,0.33072 0.272852,0.32798 0.272852,0.96739 z"
         style="font-style:normal;font-variant:normal;font-weight:normal;font-stretch:normal;font-size:5.64444447px;font-family:sans-serif;-inkscape-font-specification:'sans-serif, Normal';font-variant-ligatures:normal;font-variant-caps:normal;font-variant-numeric:normal;font-feature-settings:normal;text-align:start;writing-mode:lr-tb;text-anchor:start;stroke-width:0.26458332"
         id="path9976" />
      <path
         d="m 40.51826,286.01234 v -1.67018 h 0.507118 v 4.28846 H 40.51826 v -0.46303 q -0.159853,0.27561 -0.405144,0.41066 -0.242534,0.13229 -0.584288,0.13229 -0.559483,0 -0.912261,-0.44648 -0.350022,-0.44649 -0.350022,-1.17409 0,-0.72761 0.350022,-1.17409 0.352778,-0.44648 0.912261,-0.44648 0.341754,0 0.584288,0.13504 0.245291,0.1323 0.405144,0.4079 z m -1.72806,1.07763 q 0,0.55948 0.228754,0.87919 0.231511,0.31695 0.633898,0.31695 0.402387,0 0.633897,-0.31695 0.231511,-0.31971 0.231511,-0.87919 0,-0.55948 -0.231511,-0.87643 -0.23151,-0.31971 -0.633897,-0.31971 -0.402387,0 -0.633898,0.31971 -0.228754,0.31695 -0.228754,0.87643 z"
         style="font-style:normal;font-variant:normal;font-weight:normal;font-stretch:normal;font-size:5.64444447px;font-family:sans-serif;-inkscape-font-specification:'sans-serif, Normal';font-variant-ligatures:normal;font-variant-caps:normal;font-variant-numeric:normal;font-feature-settings:normal;text-align:start;writing-mode:lr-tb;text-anchor:start;stroke-width:0.26458332"
         id="path9978" />
      <path
         d="m 44.71025,286.96043 v 0.24805 h -2.331641 q 0.03307,0.52365 0.314193,0.79926 0.283876,0.27285 0.788238,0.27285 0.292144,0 0.564995,-0.0717 0.275608,-0.0717 0.545703,-0.21498 v 0.47956 q -0.272851,0.11575 -0.559483,0.17639 -0.286632,0.0606 -0.581532,0.0606 -0.738629,0 -1.171333,-0.42995 -0.429948,-0.42994 -0.429948,-1.16306 0,-0.75792 0.4079,-1.20165 0.410655,-0.44648 1.105186,-0.44648 0.622874,0 0.98392,0.40238 0.363802,0.39963 0.363802,1.08865 z m -0.507118,-0.14883 q -0.0055,-0.41616 -0.234267,-0.66421 -0.225998,-0.24805 -0.600824,-0.24805 -0.424436,0 -0.680751,0.23978 -0.253559,0.23978 -0.292144,0.67524 z"
         style="font-style:normal;font-variant:normal;font-weight:normal;font-stretch:normal;font-size:5.64444447px;font-family:sans-serif;-inkscape-font-specification:'sans-serif, Normal';font-variant-ligatures:normal;font-variant-caps:normal;font-variant-numeric:normal;font-feature-settings:normal;text-align:start;writing-mode:lr-tb;text-anchor:start;stroke-width:0.26458332"
         id="path9980" />
      <path
         d="m 47.331278,286.01785 q -0.08544,-0.0496 -0.187413,-0.0717 -0.09922,-0.0248 -0.220486,-0.0248 -0.429948,0 -0.661458,0.28112 -0.228755,0.27837 -0.228755,0.80202 v 1.62609 h -0.509874 v -3.08681 h 0.509874 v 0.47956 q 0.159853,-0.28112 0.416168,-0.41617 0.256315,-0.1378 0.622873,-0.1378 0.05237,0 0.115755,0.008 0.06339,0.006 0.14056,0.0193 z"
         style="font-style:normal;font-variant:normal;font-weight:normal;font-stretch:normal;font-size:5.64444447px;font-family:sans-serif;-inkscape-font-specification:'sans-serif, Normal';font-variant-ligatures:normal;font-variant-caps:normal;font-variant-numeric:normal;font-feature-settings:normal;text-align:start;writing-mode:lr-tb;text-anchor:start;stroke-width:0.26458332"
         id="path9982" />
      <path
         d="m 49.836553,285.63476 v 0.47956 q -0.214974,-0.11025 -0.446484,-0.16537 -0.231511,-0.0551 -0.479557,-0.0551 -0.377583,0 -0.567752,0.11576 -0.187413,0.11575 -0.187413,0.34726 0,0.17639 0.135047,0.27837 0.135048,0.0992 0.542947,0.19017 l 0.173633,0.0386 q 0.540191,0.11576 0.76619,0.32797 0.228754,0.20947 0.228754,0.58705 0,0.42995 -0.341754,0.68075 -0.338997,0.2508 -0.93431,0.2508 -0.248046,0 -0.518142,-0.0496 -0.267339,-0.0469 -0.564996,-0.14331 v -0.52366 q 0.28112,0.14607 0.553972,0.22049 0.272851,0.0717 0.540191,0.0717 0.35829,0 0.551215,-0.12127 0.192925,-0.12403 0.192925,-0.34727 0,-0.2067 -0.140559,-0.31695 -0.137804,-0.11024 -0.609093,-0.21221 l -0.176389,-0.0414 q -0.471289,-0.0992 -0.680751,-0.30316 -0.209462,-0.20671 -0.209462,-0.565 0,-0.43546 0.308681,-0.67248 0.30868,-0.23702 0.876432,-0.23702 0.28112,0 0.529167,0.0413 0.248046,0.0413 0.457508,0.12402 z"
         style="font-style:normal;font-variant:normal;font-weight:normal;font-stretch:normal;font-size:5.64444447px;font-family:sans-serif;-inkscape-font-specification:'sans-serif, Normal';font-variant-ligatures:normal;font-variant-caps:normal;font-variant-numeric:normal;font-feature-settings:normal;text-align:start;writing-mode:lr-tb;text-anchor:start;stroke-width:0.26458332"
         id="path9984" />
      <path
         d="m 51.31381,284.66738 v 0.87643 h 1.044553 v 0.39412 H 51.31381 v 1.67569 q 0,0.37759 0.101975,0.48507 0.10473,0.10749 0.421679,0.10749 h 0.520899 v 0.42444 h -0.520899 q -0.587044,0 -0.810286,-0.21773 -0.223242,-0.22049 -0.223242,-0.79927 v -1.67569 h -0.372071 v -0.39412 h 0.372071 v -0.87643 z"
         style="font-style:normal;font-variant:normal;font-weight:normal;font-stretch:normal;font-size:5.64444447px;font-family:sans-serif;-inkscape-font-specification:'sans-serif, Normal';font-variant-ligatures:normal;font-variant-caps:normal;font-variant-numeric:normal;font-feature-settings:normal;text-align:start;writing-mode:lr-tb;text-anchor:start;stroke-width:0.26458332"
         id="path9986" />
      <path
         d="m 54.430932,287.07894 q -0.614605,0 -0.851628,0.14056 -0.237022,0.14056 -0.237022,0.47956 0,0.2701 0.176389,0.42995 0.179145,0.1571 0.485069,0.1571 0.42168,0 0.675239,-0.29766 0.256315,-0.30041 0.256315,-0.79651 v -0.113 z m 1.01148,-0.20946 v 1.76114 h -0.507118 v -0.46854 q -0.173633,0.28112 -0.432704,0.41617 -0.259071,0.13229 -0.633898,0.13229 -0.474045,0 -0.755165,-0.26458 -0.278363,-0.26734 -0.278363,-0.71383 0,-0.52089 0.347265,-0.78548 0.350022,-0.26458 1.041797,-0.26458 h 0.711068 v -0.0496 q 0,-0.35002 -0.231511,-0.54019 -0.228754,-0.19293 -0.644921,-0.19293 -0.264584,0 -0.515387,0.0634 -0.250803,0.0634 -0.482313,0.19017 v -0.46853 q 0.278364,-0.10749 0.540191,-0.15985 0.261827,-0.0551 0.509874,-0.0551 0.669727,0 1.000456,0.34726 0.330729,0.34727 0.330729,1.05282 z"
         style="font-style:normal;font-variant:normal;font-weight:normal;font-stretch:normal;font-size:5.64444447px;font-family:sans-serif;-inkscape-font-specification:'sans-serif, Normal';font-variant-ligatures:normal;font-variant-caps:normal;font-variant-numeric:normal;font-feature-settings:normal;text-align:start;writing-mode:lr-tb;text-anchor:start;stroke-width:0.26458332"
         id="path9988" />
      <path
         d="m 59.055628,286.76751 v 1.86311 H 58.54851 v -1.84658 q 0,-0.43821 -0.170877,-0.65594 -0.170877,-0.21773 -0.51263,-0.21773 -0.410656,0 -0.647678,0.26183 -0.237023,0.26182 -0.237023,0.71382 v 1.7446 h -0.509874 v -3.08681 h 0.509874 v 0.47956 q 0.181901,-0.27837 0.427192,-0.41617 0.248047,-0.1378 0.570508,-0.1378 0.531923,0 0.804774,0.33072 0.272852,0.32798 0.272852,0.96739 z"
         style="font-style:normal;font-variant:normal;font-weight:normal;font-stretch:normal;font-size:5.64444447px;font-family:sans-serif;-inkscape-font-specification:'sans-serif, Normal';font-variant-ligatures:normal;font-variant-caps:normal;font-variant-numeric:normal;font-feature-settings:normal;text-align:start;writing-mode:lr-tb;text-anchor:start;stroke-width:0.26458332"
         id="path9990" />
      <path
         d="m 62.10385,286.01234 v -1.67018 h 0.507118 v 4.28846 H 62.10385 v -0.46303 q -0.159852,0.27561 -0.405143,0.41066 -0.242535,0.13229 -0.584288,0.13229 -0.559484,0 -0.912262,-0.44648 -0.350021,-0.44649 -0.350021,-1.17409 0,-0.72761 0.350021,-1.17409 0.352778,-0.44648 0.912262,-0.44648 0.341753,0 0.584288,0.13504 0.245291,0.1323 0.405143,0.4079 z m -1.72806,1.07763 q 0,0.55948 0.228754,0.87919 0.231511,0.31695 0.633898,0.31695 0.402387,0 0.633898,-0.31695 0.23151,-0.31971 0.23151,-0.87919 0,-0.55948 -0.23151,-0.87643 -0.231511,-0.31971 -0.633898,-0.31971 -0.402387,0 -0.633898,0.31971 -0.228754,0.31695 -0.228754,0.87643 z"
         style="font-style:normal;font-variant:normal;font-weight:normal;font-stretch:normal;font-size:5.64444447px;font-family:sans-serif;-inkscape-font-specification:'sans-serif, Normal';font-variant-ligatures:normal;font-variant-caps:normal;font-variant-numeric:normal;font-feature-settings:normal;text-align:start;writing-mode:lr-tb;text-anchor:start;stroke-width:0.26458332"
         id="path9992" />
      <path
         d="m 63.655523,285.54381 h 0.507118 v 3.08681 h -0.507118 z m 0,-1.20165 h 0.507118 v 0.64217 h -0.507118 z"
         style="font-style:normal;font-variant:normal;font-weight:normal;font-stretch:normal;font-size:5.64444447px;font-family:sans-serif;-inkscape-font-specification:'sans-serif, Normal';font-variant-ligatures:normal;font-variant-caps:normal;font-variant-numeric:normal;font-feature-settings:normal;text-align:start;writing-mode:lr-tb;text-anchor:start;stroke-width:0.26458332"
         id="path9994" />
      <path
         d="m 67.786879,286.76751 v 1.86311 h -0.507118 v -1.84658 q 0,-0.43821 -0.170877,-0.65594 -0.170877,-0.21773 -0.51263,-0.21773 -0.410656,0 -0.647678,0.26183 -0.237023,0.26182 -0.237023,0.71382 v 1.7446 h -0.509874 v -3.08681 h 0.509874 v 0.47956 q 0.181901,-0.27837 0.427192,-0.41617 0.248047,-0.1378 0.570508,-0.1378 0.531923,0 0.804774,0.33072 0.272852,0.32798 0.272852,0.96739 z"
         style="font-style:normal;font-variant:normal;font-weight:normal;font-stretch:normal;font-size:5.64444447px;font-family:sans-serif;-inkscape-font-specification:'sans-serif, Normal';font-variant-ligatures:normal;font-variant-caps:normal;font-variant-numeric:normal;font-feature-settings:normal;text-align:start;writing-mode:lr-tb;text-anchor:start;stroke-width:0.26458332"
         id="path9996" />
      <path
         d="m 70.835101,287.05138 q 0,-0.55121 -0.228755,-0.85438 -0.225998,-0.30317 -0.636653,-0.30317 -0.407899,0 -0.636654,0.30317 -0.225998,0.30317 -0.225998,0.85438 0,0.54846 0.225998,0.85163 0.228755,0.30317 0.636654,0.30317 0.410655,0 0.636653,-0.30317 0.228755,-0.30317 0.228755,-0.85163 z m 0.507118,1.19614 q 0,0.78824 -0.350022,1.17133 -0.350022,0.38585 -1.072114,0.38585 -0.267339,0 -0.504362,-0.0413 -0.237022,-0.0386 -0.460264,-0.12126 v -0.49334 q 0.223242,0.12126 0.440972,0.17914 0.21773,0.0579 0.443728,0.0579 0.49885,0 0.746897,-0.26183 0.248047,-0.25907 0.248047,-0.78548 v -0.2508 q -0.157097,0.27285 -0.402387,0.4079 -0.245291,0.13505 -0.587045,0.13505 -0.567751,0 -0.915017,-0.43271 -0.347266,-0.4327 -0.347266,-1.14653 0,-0.71658 0.347266,-1.14928 0.347266,-0.4327 0.915017,-0.4327 0.341754,0 0.587045,0.13504 0.24529,0.13505 0.402387,0.4079 v -0.46853 h 0.507118 z"
         style="font-style:normal;font-variant:normal;font-weight:normal;font-stretch:normal;font-size:5.64444447px;font-family:sans-serif;-inkscape-font-specification:'sans-serif, Normal';font-variant-ligatures:normal;font-variant-caps:normal;font-variant-numeric:normal;font-feature-settings:normal;text-align:start;writing-mode:lr-tb;text-anchor:start;stroke-width:0.26458332"
         id="path9998" />
    </g>
    <g
       aria-label="Correctness"
       transform="translate(6.8791672,-91.545867)"
       style="font-style:normal;font-variant:normal;font-weight:normal;font-stretch:normal;font-size:5.64444447px;line-height:1.25;font-family:sans-serif;-inkscape-font-specification:'sans-serif, Normal';font-variant-ligatures:normal;font-variant-caps:normal;font-variant-numeric:normal;font-feature-settings:normal;text-align:start;letter-spacing:0px;word-spacing:0px;writing-mode:lr-tb;text-anchor:start;fill:#000000;fill-opacity:1;stroke:none;stroke-width:0.26458332"
       id="text7925">
      <path
         d="m 4.9082928,275.84389 0.5870443,0 q -0.2618272,0.28112 -0.3913628,0.60083 -0.1295356,0.31695 -0.1295356,0.67524 10e-8,0.70555 0.4327041,1.08038 0.4299479,0.37482 1.2457465,0.37482 0.8130425,0 1.2457465,-0.37482 0.4299479,-0.37483 0.4299479,-1.08038 0,-0.35829 -0.1295356,-0.67524 -0.1295356,-0.31971 -0.3913629,-0.60083 l 0.5815321,0 q 0.1984375,0.29215 0.2976563,0.62012 0.099219,0.32522 0.099219,0.68902 0,0.93431 -0.5705078,1.47174 -0.5732638,0.53744 -1.5626953,0.53744 -0.9921875,0 -1.5626953,-0.53744 -0.5732639,-0.53743 -0.573264,-1.47174 0,-0.36932 0.099219,-0.69453 0.096463,-0.32798 0.292144,-0.61461 z"
         style="font-style:normal;font-variant:normal;font-weight:normal;font-stretch:normal;font-size:5.64444447px;font-family:sans-serif;-inkscape-font-specification:'sans-serif, Normal';font-variant-ligatures:normal;font-variant-caps:normal;font-variant-numeric:normal;font-feature-settings:normal;text-align:start;writing-mode:lr-tb;text-anchor:start;stroke-width:0.26458332"
         id="path9951" />
      <path
         d="m 5.9748945,273.80441 q 0,0.4079 0.3197049,0.64492 0.3169488,0.23703 0.8709201,0.23703 0.5539714,0 0.8736762,-0.23427 0.3169488,-0.23702 0.3169488,-0.64768 0,-0.40514 -0.3197049,-0.64216 -0.3197049,-0.23703 -0.8709202,-0.23703 -0.5484592,0 -0.868164,0.23703 -0.3224609,0.23702 -0.3224609,0.64216 z m -0.4299479,0 q -1e-7,-0.66146 0.4299478,-1.03904 0.4299479,-0.37758 1.190625,-0.37758 0.757921,0 1.190625,0.37758 0.429948,0.37758 0.429948,1.03904 0,0.66422 -0.4299479,1.0418 -0.4327039,0.37482 -1.190625,0.37482 -0.760677,0 -1.190625,-0.37482 -0.4299479,-0.37758 -0.4299479,-1.0418 z"
         style="font-style:normal;font-variant:normal;font-weight:normal;font-stretch:normal;font-size:5.64444447px;font-family:sans-serif;-inkscape-font-specification:'sans-serif, Normal';font-variant-ligatures:normal;font-variant-caps:normal;font-variant-numeric:normal;font-feature-settings:normal;text-align:start;writing-mode:lr-tb;text-anchor:start;stroke-width:0.26458332"
         id="path9953" />
      <path
         d="m 6.0934057,269.76123 q -0.049609,0.0854 -0.071658,0.18742 -0.024805,0.0992 -0.024805,0.22048 0,0.42995 0.2811198,0.66146 0.2783637,0.22875 0.8020182,0.22875 l 1.6260851,0 0,0.50988 -3.0868055,0 0,-0.50988 0.4795572,0 q -0.2811198,-0.15985 -0.4161675,-0.41616 -0.1378038,-0.25632 -0.1378039,-0.62288 0,-0.0524 0.00827,-0.11575 0.00551,-0.0634 0.019292,-0.14056 z"
         style="font-style:normal;font-variant:normal;font-weight:normal;font-stretch:normal;font-size:5.64444447px;font-family:sans-serif;-inkscape-font-specification:'sans-serif, Normal';font-variant-ligatures:normal;font-variant-caps:normal;font-variant-numeric:normal;font-feature-settings:normal;text-align:start;writing-mode:lr-tb;text-anchor:start;stroke-width:0.26458332"
         id="path9955" />
      <path
         d="m 6.0934057,267.53433 q -0.049609,0.0854 -0.071658,0.18742 -0.024805,0.0992 -0.024805,0.22048 0,0.42995 0.2811198,0.66146 0.2783637,0.22876 0.8020182,0.22876 l 1.6260851,0 0,0.50987 -3.0868055,0 0,-0.50987 0.4795572,0 q -0.2811198,-0.15986 -0.4161675,-0.41617 -0.1378038,-0.25632 -0.1378039,-0.62288 0,-0.0524 0.00827,-0.11575 0.00551,-0.0634 0.019292,-0.14056 z"
         style="font-style:normal;font-variant:normal;font-weight:normal;font-stretch:normal;font-size:5.64444447px;font-family:sans-serif;-inkscape-font-specification:'sans-serif, Normal';font-variant-ligatures:normal;font-variant-caps:normal;font-variant-numeric:normal;font-feature-settings:normal;text-align:start;writing-mode:lr-tb;text-anchor:start;stroke-width:0.26458332"
         id="path9957" />
      <path
         d="m 7.0359838,264.47784 0.2480469,0 1e-7,2.33164 q 0.5236545,-0.0331 0.7992622,-0.31419 0.2728515,-0.28388 0.2728515,-0.78824 0,-0.29214 -0.071658,-0.56499 -0.071658,-0.27561 -0.214974,-0.54571 l 0.4795573,0 q 0.1157552,0.27285 0.1763889,0.55949 0.060634,0.28663 0.060634,0.58153 0,0.73863 -0.4299479,1.17133 -0.4299479,0.42995 -1.1630642,0.42995 -0.757921,0 -1.2016493,-0.4079 -0.4464844,-0.41066 -0.4464844,-1.10519 -1e-7,-0.62287 0.4023871,-0.98392 0.399631,-0.3638 1.0886501,-0.3638 z m -0.1488281,0.50712 q -0.4161675,0.006 -0.6642144,0.23427 -0.2480468,0.22599 -0.2480468,0.60082 0,0.42444 0.2397787,0.68075 0.2397786,0.25356 0.6752387,0.29215 z"
         style="font-style:normal;font-variant:normal;font-weight:normal;font-stretch:normal;font-size:5.64444447px;font-family:sans-serif;-inkscape-font-specification:'sans-serif, Normal';font-variant-ligatures:normal;font-variant-caps:normal;font-variant-numeric:normal;font-feature-settings:normal;text-align:start;writing-mode:lr-tb;text-anchor:start;stroke-width:0.26458332"
         id="path9959" />
      <path
         d="m 5.7378719,261.42411 0.4740451,0 q -0.1185113,0.21497 -0.1763889,0.4327 -0.060634,0.21498 -0.060634,0.43546 0,0.49334 0.3141927,0.76619 0.3114367,0.27285 0.8764323,0.27285 0.5649957,0 0.8791884,-0.27285 0.3114366,-0.27285 0.3114366,-0.76619 0,-0.22048 -0.057878,-0.43546 -0.060634,-0.21773 -0.179145,-0.4327 l 0.468533,0 q 0.099219,0.21222 0.1488281,0.44097 0.049609,0.226 0.049609,0.48231 0,0.69729 -0.4382161,1.10795 -0.4382161,0.41065 -1.1823568,0.41065 -0.7551649,0 -1.1878689,-0.41341 -0.432704,-0.41617 -0.432704,-1.13826 -1e-7,-0.23426 0.049609,-0.45751 0.046853,-0.22324 0.143316,-0.4327 z"
         style="font-style:normal;font-variant:normal;font-weight:normal;font-stretch:normal;font-size:5.64444447px;font-family:sans-serif;-inkscape-font-specification:'sans-serif, Normal';font-variant-ligatures:normal;font-variant-caps:normal;font-variant-numeric:normal;font-feature-settings:normal;text-align:start;writing-mode:lr-tb;text-anchor:start;stroke-width:0.26458332"
         id="path9961" />
      <path
         d="m 4.7429284,260.03504 0.8764323,0 -10e-8,-1.04455 0.3941189,0 1e-7,1.04455 1.6756944,0 q 0.3775825,0 0.4850695,-0.10197 0.1074869,-0.10473 0.1074869,-0.42168 l 0,-0.5209 0.4244358,0 0,0.5209 q 0,0.58704 -0.21773,0.81029 -0.2204861,0.22324 -0.7992621,0.22324 l -1.6756945,0 0,0.37207 -0.3941189,0 0,-0.37207 -0.8764323,0 z"
         style="font-style:normal;font-variant:normal;font-weight:normal;font-stretch:normal;font-size:5.64444447px;font-family:sans-serif;-inkscape-font-specification:'sans-serif, Normal';font-variant-ligatures:normal;font-variant-caps:normal;font-variant-numeric:normal;font-feature-settings:normal;text-align:start;writing-mode:lr-tb;text-anchor:start;stroke-width:0.26458332"
         id="path9963" />
      <path
         d="m 6.8430585,255.75486 1.8631076,0 10e-8,0.50712 -1.8465712,0 q -0.4382162,0 -0.6559462,0.17088 -0.21773,0.17087 -0.21773,0.51263 0,0.41065 0.2618273,0.64767 0.2618272,0.23703 0.7138238,0.23703 l 1.7445963,0 0,0.50987 -3.0868055,0 0,-0.50987 0.4795572,0 q -0.2783637,-0.1819 -0.4161675,-0.42719 -0.1378038,-0.24805 -0.1378039,-0.57051 0,-0.53192 0.3307292,-0.80478 0.3279731,-0.27285 0.9673828,-0.27285 z"
         style="font-style:normal;font-variant:normal;font-weight:normal;font-stretch:normal;font-size:5.64444447px;font-family:sans-serif;-inkscape-font-specification:'sans-serif, Normal';font-variant-ligatures:normal;font-variant-caps:normal;font-variant-numeric:normal;font-feature-settings:normal;text-align:start;writing-mode:lr-tb;text-anchor:start;stroke-width:0.26458332"
         id="path9965" />
      <path
         d="m 7.0359838,252.09755 0.2480469,0 1e-7,2.33164 q 0.5236545,-0.0331 0.7992622,-0.3142 0.2728515,-0.28387 0.2728515,-0.78823 0,-0.29215 -0.071658,-0.565 -0.071658,-0.27561 -0.214974,-0.5457 l 0.4795573,0 q 0.1157552,0.27285 0.1763889,0.55948 0.060634,0.28663 0.060634,0.58153 0,0.73863 -0.4299479,1.17134 -0.4299479,0.42994 -1.1630642,0.42994 -0.757921,0 -1.2016493,-0.4079 -0.4464844,-0.41065 -0.4464844,-1.10518 -1e-7,-0.62288 0.4023871,-0.98392 0.399631,-0.3638 1.0886501,-0.3638 z m -0.1488281,0.50711 q -0.4161675,0.006 -0.6642144,0.23427 -0.2480468,0.226 -0.2480468,0.60083 0,0.42443 0.2397787,0.68075 0.2397786,0.25356 0.6752387,0.29214 z"
         style="font-style:normal;font-variant:normal;font-weight:normal;font-stretch:normal;font-size:5.64444447px;font-family:sans-serif;-inkscape-font-specification:'sans-serif, Normal';font-variant-ligatures:normal;font-variant-caps:normal;font-variant-numeric:normal;font-feature-settings:normal;text-align:start;writing-mode:lr-tb;text-anchor:start;stroke-width:0.26458332"
         id="path9967" />
      <path
         d="m 5.7103111,249.29737 0.4795573,0 q -0.110243,0.21498 -0.1653646,0.44649 -0.055121,0.23151 -0.055121,0.47955 10e-8,0.37759 0.1157553,0.56776 0.1157552,0.18741 0.3472656,0.18741 0.1763889,0 0.2783637,-0.13505 0.099219,-0.13505 0.1901693,-0.54295 l 0.038585,-0.17363 q 0.1157552,-0.54019 0.3279731,-0.76619 0.2094618,-0.22875 0.5870442,-0.22875 0.429948,0 0.6807509,0.34175 0.250803,0.339 0.250803,0.93431 0,0.24805 -0.049609,0.51814 -0.046853,0.26734 -0.143316,0.565 l -0.5236545,0 q 0.146072,-0.28112 0.2204861,-0.55397 0.071658,-0.27285 0.071658,-0.54019 -10e-8,-0.35829 -0.1212674,-0.55122 -0.1240235,-0.19292 -0.3472657,-0.19292 -0.2067057,0 -0.3169487,0.14056 -0.1102431,0.1378 -0.2122179,0.60909 l -0.041341,0.17639 q -0.099219,0.47129 -0.3031684,0.68075 -0.2067057,0.20946 -0.5649957,0.20946 -0.43546,0 -0.6724826,-0.30868 -0.2370226,-0.30868 -0.2370226,-0.87643 0,-0.28112 0.041341,-0.52917 0.041341,-0.24804 0.1240234,-0.45751 z"
         style="font-style:normal;font-variant:normal;font-weight:normal;font-stretch:normal;font-size:5.64444447px;font-family:sans-serif;-inkscape-font-specification:'sans-serif, Normal';font-variant-ligatures:normal;font-variant-caps:normal;font-variant-numeric:normal;font-feature-settings:normal;text-align:start;writing-mode:lr-tb;text-anchor:start;stroke-width:0.26458332"
         id="path9969" />
      <path
         d="m 5.7103111,246.35388 0.4795573,0 q -0.110243,0.21497 -0.1653646,0.44648 -0.055121,0.23151 -0.055121,0.47956 10e-8,0.37758 0.1157553,0.56775 0.1157552,0.18741 0.3472656,0.18741 0.1763889,0 0.2783637,-0.13504 0.099219,-0.13505 0.1901693,-0.54295 l 0.038585,-0.17363 q 0.1157552,-0.5402 0.3279731,-0.76619 0.2094618,-0.22876 0.5870442,-0.22876 0.429948,0 0.6807509,0.34176 0.250803,0.33899 0.250803,0.93431 0,0.24804 -0.049609,0.51814 -0.046853,0.26734 -0.143316,0.56499 l -0.5236545,0 q 0.146072,-0.28112 0.2204861,-0.55397 0.071658,-0.27285 0.071658,-0.54019 -10e-8,-0.35829 -0.1212674,-0.55121 -0.1240235,-0.19293 -0.3472657,-0.19293 -0.2067057,0 -0.3169487,0.14056 -0.1102431,0.1378 -0.2122179,0.60909 l -0.041341,0.17639 q -0.099219,0.47129 -0.3031684,0.68075 -0.2067057,0.20946 -0.5649957,0.20946 -0.43546,0 -0.6724826,-0.30868 -0.2370226,-0.30868 -0.2370226,-0.87643 0,-0.28112 0.041341,-0.52916 0.041341,-0.24805 0.1240234,-0.45751 z"
         style="font-style:normal;font-variant:normal;font-weight:normal;font-stretch:normal;font-size:5.64444447px;font-family:sans-serif;-inkscape-font-specification:'sans-serif, Normal';font-variant-ligatures:normal;font-variant-caps:normal;font-variant-numeric:normal;font-feature-settings:normal;text-align:start;writing-mode:lr-tb;text-anchor:start;stroke-width:0.26458332"
         id="path9971" />
    </g>
    <path
       style="fill:none;stroke:#000e01;stroke-width:1.32291667;stroke-linecap:butt;stroke-linejoin:miter;stroke-miterlimit:3.20000005;stroke-dasharray:none;stroke-opacity:1;marker-end:url(#Arrow2Mend-1)"
       d="M 20.040844,280.37889 C 50.640179,249.77956 50.640179,249.77956 50.640179,249.77956"
       id="path6451-4"
       inkscape:connector-curvature="0" />
    <path
       style="fill:none;stroke:#000e01;stroke-width:1.32291663;stroke-linecap:butt;stroke-linejoin:miter;stroke-miterlimit:3.20000005;stroke-dasharray:none;stroke-opacity:1;marker-end:url(#Arrow2Mend-1-6)"
       d="M 65.437743,232.70847 C 96.037078,202.10914 96.037078,202.10914 96.037078,202.10914"
       id="path6451-4-2"
       inkscape:connector-curvature="0" />
    <path
       style="fill:none;stroke:#000e01;stroke-width:1.32291667;stroke-linecap:butt;stroke-linejoin:miter;stroke-miterlimit:3.20000005;stroke-dasharray:none;stroke-opacity:1;marker-end:url(#Arrow2Mend-1-6-4)"
       d="m 110.83465,185.03805 c 30.59933,-30.59932 30.59933,-30.59932 30.59933,-30.59932"
       id="path6451-4-2-8"
       inkscape:connector-curvature="0" />
    <g
       aria-label="Information"
       style="font-style:normal;font-weight:normal;font-size:10.58333302px;line-height:1.25;font-family:sans-serif;letter-spacing:0px;word-spacing:0px;fill:#000000;fill-opacity:1;stroke:none;stroke-width:0.26458332"
       id="text6449-9">
      <path
         d="m 25.659569,237.19006 h 1.043864 v 7.71529 h -1.043864 z"
         style="stroke-width:0.26458332"
         id="path9928" />
      <path
         d="m 33.55056,241.41202 v 3.49333 h -0.950847 v -3.46232 q 0,-0.82166 -0.320394,-1.2299 -0.320393,-0.40824 -0.961181,-0.40824 -0.769979,0 -1.214396,0.49092 -0.444418,0.49093 -0.444418,1.33842 v 3.27112 H 28.70331 v -5.78776 h 0.956014 v 0.89917 q 0.341065,-0.52193 0.800985,-0.78031 0.465088,-0.25839 1.069702,-0.25839 0.997355,0 1.508952,0.62012 0.511597,0.61495 0.511597,1.81384 z"
         style="stroke-width:0.26458332"
         id="path9930" />
      <path
         d="m 38.387474,236.8645 v 0.79065 h -0.909506 q -0.511596,0 -0.713134,0.2067 -0.196371,0.20671 -0.196371,0.74414 v 0.5116 h 1.565796 v 0.73897 h -1.565796 v 5.04879 h -0.956014 v -5.04879 h -0.909505 v -0.73897 h 0.909505 v -0.40308 q 0,-0.96635 0.449585,-1.4056 0.449585,-0.44441 1.42627,-0.44441 z"
         style="stroke-width:0.26458332"
         id="path9932" />
      <path
         d="m 41.42088,239.78422 q -0.764811,0 -1.209228,0.59944 -0.444418,0.59428 -0.444418,1.63298 0,1.03869 0.43925,1.63814 0.444417,0.59428 1.214396,0.59428 0.759644,0 1.204061,-0.59945 0.444417,-0.59944 0.444417,-1.63297 0,-1.02836 -0.444417,-1.62781 -0.444417,-0.60461 -1.204061,-0.60461 z m 0,-0.80616 q 1.240235,0 1.948202,0.80616 0.707967,0.80615 0.707967,2.23242 0,1.4211 -0.707967,2.23242 -0.707967,0.80615 -1.948202,0.80615 -1.245402,0 -1.953369,-0.80615 -0.702799,-0.81132 -0.702799,-2.23242 0,-1.42627 0.702799,-2.23242 0.707967,-0.80616 1.953369,-0.80616 z"
         style="stroke-width:0.26458332"
         id="path9934" />
      <path
         d="m 49.001813,240.00642 q -0.160197,-0.093 -0.3514,-0.13435 -0.186035,-0.0465 -0.413411,-0.0465 -0.806152,0 -1.240234,0.5271 -0.428915,0.52193 -0.428915,1.50378 v 3.04891 h -0.956014 v -5.78776 h 0.956014 v 0.89917 q 0.299724,-0.5271 0.780314,-0.78031 0.480591,-0.25839 1.167888,-0.25839 0.09819,0 0.217041,0.0155 0.118855,0.0103 0.263549,0.0362 z"
         style="stroke-width:0.26458332"
         id="path9936" />
      <path
         d="m 54.329653,240.22863 q 0.356567,-0.64078 0.852661,-0.94568 0.496093,-0.30489 1.167887,-0.30489 0.904338,0 1.395264,0.63562 0.490926,0.63046 0.490926,1.79834 v 3.49333 h -0.956014 v -3.46232 q 0,-0.83199 -0.294556,-1.23507 -0.294555,-0.40307 -0.89917,-0.40307 -0.738973,0 -1.167887,0.49092 -0.428914,0.49093 -0.428914,1.33842 v 3.27112 h -0.956014 v -3.46232 q 0,-0.83716 -0.294556,-1.23507 -0.294556,-0.40307 -0.909505,-0.40307 -0.728638,0 -1.157552,0.49609 -0.428915,0.49093 -0.428915,1.33325 v 3.27112 h -0.956014 v -5.78776 h 0.956014 v 0.89917 q 0.325562,-0.53227 0.780314,-0.78548 0.454753,-0.25322 1.080038,-0.25322 0.630452,0 1.069702,0.3204 0.444417,0.32039 0.656291,0.93017 z"
         style="stroke-width:0.26458332"
         id="path9938" />
      <path
         d="m 62.768413,241.99597 q -1.152384,0 -1.596801,0.26355 -0.444418,0.26355 -0.444418,0.89917 0,0.50643 0.33073,0.80615 0.335896,0.29455 0.909505,0.29455 0.790649,0 1.266072,-0.5581 0.480591,-0.56327 0.480591,-1.49345 v -0.21187 z m 1.896525,-0.39274 v 3.30212 h -0.950846 v -0.8785 q -0.325561,0.5271 -0.81132,0.78031 -0.485758,0.24805 -1.188558,0.24805 -0.888834,0 -1.415934,-0.49609 -0.521932,-0.50126 -0.521932,-1.33842 0,-0.97669 0.651123,-1.47278 0.656291,-0.49609 1.953369,-0.49609 h 1.333252 v -0.093 q 0,-0.65629 -0.434082,-1.01286 -0.428914,-0.36173 -1.209228,-0.36173 -0.496094,0 -0.96635,0.11885 -0.470255,0.11886 -0.904337,0.35657 v -0.8785 q 0.521932,-0.20154 1.012858,-0.29972 0.490926,-0.10336 0.956014,-0.10336 1.255737,0 1.875854,0.65113 0.620117,0.65112 0.620117,1.97404 z"
         style="stroke-width:0.26458332"
         id="path9940" />
      <path
         d="m 67.569153,237.47428 v 1.64331 h 1.958536 v 0.73897 h -1.958536 v 3.14193 q 0,0.70797 0.191203,0.9095 0.19637,0.20154 0.790649,0.20154 h 0.976684 v 0.79582 h -0.976684 q -1.100708,0 -1.519287,-0.40824 -0.418579,-0.41342 -0.418579,-1.49862 v -3.14193 h -0.697632 v -0.73897 h 0.697632 v -1.64331 z"
         style="stroke-width:0.26458332"
         id="path9942" />
      <path
         d="m 70.783427,239.11759 h 0.950846 v 5.78776 h -0.950846 z m 0,-2.25309 h 0.950846 v 1.20406 h -0.950846 z"
         style="stroke-width:0.26458332"
         id="path9944" />
      <path
         d="m 75.961407,239.78422 q -0.764812,0 -1.209229,0.59944 -0.444417,0.59428 -0.444417,1.63298 0,1.03869 0.439249,1.63814 0.444418,0.59428 1.214397,0.59428 0.759643,0 1.20406,-0.59945 0.444418,-0.59944 0.444418,-1.63297 0,-1.02836 -0.444418,-1.62781 -0.444417,-0.60461 -1.20406,-0.60461 z m 0,-0.80616 q 1.240234,0 1.948201,0.80616 0.707967,0.80615 0.707967,2.23242 0,1.4211 -0.707967,2.23242 -0.707967,0.80615 -1.948201,0.80615 -1.245402,0 -1.953369,-0.80615 -0.7028,-0.81132 -0.7028,-2.23242 0,-1.42627 0.7028,-2.23242 0.707967,-0.80616 1.953369,-0.80616 z"
         style="stroke-width:0.26458332"
         id="path9946" />
      <path
         d="m 84.999616,241.41202 v 3.49333 h -0.950847 v -3.46232 q 0,-0.82166 -0.320393,-1.2299 -0.320394,-0.40824 -0.961182,-0.40824 -0.769979,0 -1.214396,0.49092 -0.444417,0.49093 -0.444417,1.33842 v 3.27112 h -0.956014 v -5.78776 h 0.956014 v 0.89917 q 0.341064,-0.52193 0.800984,-0.78031 0.465088,-0.25839 1.069702,-0.25839 0.997355,0 1.508952,0.62012 0.511597,0.61495 0.511597,1.81384 z"
         style="stroke-width:0.26458332"
         id="path9948" />
    </g>
    <g
       aria-label="Knowledge"
       style="font-style:normal;font-weight:normal;font-size:10.58333302px;line-height:1.25;font-family:sans-serif;letter-spacing:0px;word-spacing:0px;fill:#000000;fill-opacity:1;stroke:none;stroke-width:0.26458332"
       id="text6449-9-5">
      <path
         d="m 67.422256,188.50624 h 1.043864 v 3.26078 l 3.462321,-3.26078 h 1.343587 l -3.829223,3.59668 4.103108,4.11861 H 72.17132 l -3.7052,-3.71554 v 3.71554 h -1.043864 z"
         style="stroke-width:0.26458332"
         id="path9909" />
      <path
         d="m 79.137303,192.7282 v 3.49333 h -0.950846 v -3.46232 q 0,-0.82166 -0.320394,-1.2299 -0.320394,-0.40825 -0.961181,-0.40825 -0.769979,0 -1.214396,0.49093 -0.444418,0.49093 -0.444418,1.33842 v 3.27112 h -0.956014 v -5.78776 h 0.956014 v 0.89917 q 0.341065,-0.52194 0.800985,-0.78032 0.465088,-0.25838 1.069702,-0.25838 0.997355,0 1.508952,0.62012 0.511596,0.61495 0.511596,1.81384 z"
         style="stroke-width:0.26458332"
         id="path9911" />
      <path
         d="m 83.28692,191.10039 q -0.764811,0 -1.209228,0.59945 -0.444417,0.59428 -0.444417,1.63297 0,1.0387 0.439249,1.63815 0.444418,0.59428 1.214396,0.59428 0.759644,0 1.204061,-0.59945 0.444418,-0.59945 0.444418,-1.63298 0,-1.02836 -0.444418,-1.6278 -0.444417,-0.60462 -1.204061,-0.60462 z m 0,-0.80615 q 1.240235,0 1.948202,0.80615 0.707967,0.80616 0.707967,2.23242 0,1.42111 -0.707967,2.23243 -0.707967,0.80615 -1.948202,0.80615 -1.245402,0 -1.953369,-0.80615 -0.702799,-0.81132 -0.702799,-2.23243 0,-1.42626 0.702799,-2.23242 0.707967,-0.80615 1.953369,-0.80615 z"
         style="stroke-width:0.26458332"
         id="path9913" />
      <path
         d="m 86.961114,190.43377 h 0.950847 l 1.188557,4.51652 1.183391,-4.51652 h 1.121378 l 1.188558,4.51652 1.18339,-4.51652 h 0.950847 l -1.51412,5.78776 h -1.121378 l -1.245402,-4.7439 -1.25057,4.7439 h -1.121378 z"
         style="stroke-width:0.26458332"
         id="path9915" />
      <path
         d="m 96.175023,188.18067 h 0.950846 v 8.04086 h -0.950846 z"
         style="stroke-width:0.26458332"
         id="path9917" />
      <path
         d="m 104.06085,193.08994 v 0.46508 h -4.371831 q 0.06201,0.98186 0.589111,1.49862 0.53227,0.5116 1.47795,0.5116 0.54777,0 1.05936,-0.13436 0.51677,-0.13436 1.0232,-0.40308 v 0.89917 q -0.5116,0.21704 -1.04903,0.33073 -0.53744,0.11369 -1.09038,0.11369 -1.38493,0 -2.196246,-0.80615 -0.806152,-0.80616 -0.806152,-2.18075 0,-1.4211 0.764811,-2.25309 0.769977,-0.83716 2.072227,-0.83716 1.16789,0 1.84485,0.75448 0.68213,0.7493 0.68213,2.04122 z M 103.11,192.81088 q -0.0103,-0.78031 -0.43925,-1.2454 -0.42375,-0.46509 -1.12655,-0.46509 -0.79581,0 -1.2764,0.44959 -0.475428,0.44958 -0.547775,1.26607 z"
         style="stroke-width:0.26458332"
         id="path9919" />
      <path
         d="m 109.43003,191.31227 v -3.1316 h 0.95084 v 8.04086 h -0.95084 v -0.86817 q -0.29973,0.51677 -0.75965,0.76998 -0.45475,0.24805 -1.09554,0.24805 -1.04903,0 -1.71049,-0.83716 -0.65629,-0.83716 -0.65629,-2.20142 0,-1.36425 0.65629,-2.20141 0.66146,-0.83716 1.71049,-0.83716 0.64079,0 1.09554,0.25322 0.45992,0.24804 0.75965,0.76481 z m -3.24012,2.02054 q 0,1.04904 0.42892,1.64848 0.43408,0.59428 1.18856,0.59428 0.75447,0 1.18855,-0.59428 0.43409,-0.59944 0.43409,-1.64848 0,-1.04903 -0.43409,-1.64331 -0.43408,-0.59944 -1.18855,-0.59944 -0.75448,0 -1.18856,0.59944 -0.42892,0.59428 -0.42892,1.64331 z"
         style="stroke-width:0.26458332"
         id="path9921" />
      <path
         d="m 116.14796,193.26047 q 0,-1.03353 -0.42891,-1.60197 -0.42375,-0.56844 -1.19373,-0.56844 -0.76481,0 -1.19372,0.56844 -0.42375,0.56844 -0.42375,1.60197 0,1.02836 0.42375,1.5968 0.42891,0.56844 1.19372,0.56844 0.76998,0 1.19373,-0.56844 0.42891,-0.56844 0.42891,-1.5968 z m 0.95085,2.24275 q 0,1.47795 -0.65629,2.19625 -0.65629,0.72347 -2.01021,0.72347 -0.50126,0 -0.94568,-0.0775 -0.44442,-0.0724 -0.863,-0.22738 v -0.92501 q 0.41858,0.22738 0.82682,0.3359 0.40825,0.10852 0.832,0.10852 0.93534,0 1.40043,-0.49092 0.46508,-0.48576 0.46508,-1.47278 v -0.47026 q -0.29455,0.5116 -0.75447,0.76481 -0.45992,0.25322 -1.10071,0.25322 -1.06453,0 -1.71566,-0.81132 -0.65112,-0.81132 -0.65112,-2.14974 0,-1.34359 0.65112,-2.15491 0.65113,-0.81132 1.71566,-0.81132 0.64079,0 1.10071,0.25322 0.45992,0.25321 0.75447,0.76481 v -0.8785 h 0.95085 z"
         style="stroke-width:0.26458332"
         id="path9923" />
      <path
         d="m 124.00795,193.08994 v 0.46508 h -4.37183 q 0.062,0.98186 0.58911,1.49862 0.53227,0.5116 1.47795,0.5116 0.54777,0 1.05937,-0.13436 0.51676,-0.13436 1.02319,-0.40308 v 0.89917 q -0.5116,0.21704 -1.04903,0.33073 -0.53744,0.11369 -1.09038,0.11369 -1.38492,0 -2.19624,-0.80615 -0.80616,-0.80616 -0.80616,-2.18075 0,-1.4211 0.76481,-2.25309 0.76998,-0.83716 2.07223,-0.83716 1.16789,0 1.84485,0.75448 0.68213,0.7493 0.68213,2.04122 z m -0.95085,-0.27906 q -0.0103,-0.78031 -0.43925,-1.2454 -0.42375,-0.46509 -1.12655,-0.46509 -0.79581,0 -1.2764,0.44959 -0.47543,0.44958 -0.54777,1.26607 z"
         style="stroke-width:0.26458332"
         id="path9925" />
    </g>
    <g
       aria-label="Wisdom"
       style="font-style:normal;font-weight:normal;font-size:10.58333302px;line-height:1.25;font-family:sans-serif;letter-spacing:0px;word-spacing:0px;fill:#000000;fill-opacity:1;stroke:none;stroke-width:0.26458332"
       id="text9731">
      <path
         d="m 115.63415,141.87397 h 1.0542 l 1.62264,6.52157 1.61747,-6.52157 h 1.17306 l 1.62264,6.52157 1.61747,-6.52157 h 1.05937 l -1.93787,7.71529 h -1.31258 l -1.62781,-6.69726 -1.64331,6.69726 h -1.31258 z"
         style="stroke-width:0.26458332"
         id="path9896" />
      <path
         d="m 126.51204,143.8015 h 0.95085 v 5.78776 h -0.95085 z m 0,-2.25309 h 0.95085 v 1.20406 h -0.95085 z"
         style="stroke-width:0.26458332"
         id="path9898" />
      <path
         d="m 133.13696,143.97204 v 0.89917 q -0.40308,-0.20671 -0.83716,-0.31006 -0.43408,-0.10336 -0.89917,-0.10336 -0.70797,0 -1.06453,0.21705 -0.3514,0.21704 -0.3514,0.65112 0,0.33073 0.25321,0.52193 0.25322,0.18604 1.01803,0.35657 l 0.32556,0.0723 q 1.01286,0.21705 1.4366,0.61495 0.42892,0.39275 0.42892,1.10071 0,0.80615 -0.64079,1.27641 -0.63562,0.47026 -1.75183,0.47026 -0.46509,0 -0.97152,-0.093 -0.50126,-0.0879 -1.05936,-0.26872 v -0.98185 q 0.5271,0.27388 1.03869,0.41341 0.5116,0.13436 1.01286,0.13436 0.67179,0 1.03353,-0.22738 0.36173,-0.23254 0.36173,-0.65112 0,-0.38757 -0.26355,-0.59428 -0.25838,-0.20671 -1.14205,-0.39791 l -0.33072,-0.0775 q -0.88367,-0.18604 -1.27641,-0.56844 -0.39274,-0.38758 -0.39274,-1.05937 0,-0.81649 0.57877,-1.26091 0.57878,-0.44441 1.64331,-0.44441 0.5271,0 0.99219,0.0775 0.46509,0.0775 0.85783,0.23255 z"
         style="stroke-width:0.26458332"
         id="path9900" />
      <path
         d="m 138.77486,144.68 v -3.13159 h 0.95084 v 8.04085 h -0.95084 v -0.86816 q -0.29972,0.51676 -0.75965,0.76998 -0.45475,0.24805 -1.09554,0.24805 -1.04903,0 -1.71049,-0.83716 -0.65629,-0.83716 -0.65629,-2.20142 0,-1.36426 0.65629,-2.20141 0.66146,-0.83716 1.71049,-0.83716 0.64079,0 1.09554,0.25321 0.45993,0.24805 0.75965,0.76481 z m -3.24011,2.02055 q 0,1.04903 0.42891,1.64848 0.43408,0.59428 1.18856,0.59428 0.75447,0 1.18856,-0.59428 0.43408,-0.59945 0.43408,-1.64848 0,-1.04903 -0.43408,-1.64331 -0.43409,-0.59945 -1.18856,-0.59945 -0.75448,0 -1.18856,0.59945 -0.42891,0.59428 -0.42891,1.64331 z"
         style="stroke-width:0.26458332"
         id="path9902" />
      <path
         d="m 143.927,144.46813 q -0.76481,0 -1.20923,0.59945 -0.44442,0.59428 -0.44442,1.63297 0,1.0387 0.43925,1.63814 0.44442,0.59428 1.2144,0.59428 0.75964,0 1.20406,-0.59944 0.44442,-0.59945 0.44442,-1.63298 0,-1.02836 -0.44442,-1.62781 -0.44442,-0.60461 -1.20406,-0.60461 z m 0,-0.80615 q 1.24023,0 1.9482,0.80615 0.70797,0.80615 0.70797,2.23242 0,1.4211 -0.70797,2.23242 -0.70797,0.80616 -1.9482,0.80616 -1.2454,0 -1.95337,-0.80616 -0.7028,-0.81132 -0.7028,-2.23242 0,-1.42627 0.7028,-2.23242 0.70797,-0.80615 1.95337,-0.80615 z"
         style="stroke-width:0.26458332"
         id="path9904" />
      <path
         d="m 152.66032,144.91255 q 0.35656,-0.64079 0.85266,-0.94568 0.49609,-0.30489 1.16788,-0.30489 0.90434,0 1.39527,0.63562 0.49092,0.63045 0.49092,1.79834 v 3.49332 h -0.95601 v -3.46232 q 0,-0.83199 -0.29456,-1.23506 -0.29455,-0.40308 -0.89917,-0.40308 -0.73897,0 -1.16788,0.49093 -0.42892,0.49092 -0.42892,1.33842 v 3.27111 h -0.95601 v -3.46232 q 0,-0.83716 -0.29456,-1.23506 -0.29455,-0.40308 -0.9095,-0.40308 -0.72864,0 -1.15755,0.49609 -0.42892,0.49093 -0.42892,1.33326 v 3.27111 h -0.95601 v -5.78776 h 0.95601 v 0.89917 q 0.32556,-0.53226 0.78032,-0.78548 0.45475,-0.25321 1.08003,-0.25321 0.63046,0 1.06971,0.32039 0.44441,0.3204 0.65629,0.93018 z"
         style="stroke-width:0.26458332"
         id="path9906" />
    </g>
    <g
       aria-label="relations"
       style="font-style:normal;font-variant:normal;font-weight:normal;font-stretch:normal;font-size:7.05555534px;line-height:1.25;font-family:sans-serif;-inkscape-font-specification:'sans-serif, Normal';font-variant-ligatures:normal;font-variant-caps:normal;font-variant-numeric:normal;font-feature-settings:normal;text-align:start;letter-spacing:0px;word-spacing:0px;writing-mode:lr-tb;text-anchor:start;fill:#ff0000;fill-opacity:1;stroke:none;stroke-width:0.26458332"
       id="text9735">
      <path
         d="m 43.873396,263.92951 q -0.106798,-0.062 -0.234266,-0.0896 -0.124024,-0.031 -0.275608,-0.031 -0.537435,0 -0.826823,0.3514 -0.285943,0.34795 -0.285943,1.00252 v 2.03261 h -0.637343 v -3.85851 h 0.637343 v 0.59944 q 0.199816,-0.35139 0.52021,-0.5202 0.320393,-0.17226 0.778591,-0.17226 0.06546,0 0.144694,0.0103 0.07924,0.007 0.1757,0.0241 z"
         style="font-style:normal;font-variant:normal;font-weight:normal;font-stretch:normal;font-size:7.05555534px;font-family:sans-serif;-inkscape-font-specification:'sans-serif, Normal';font-variant-ligatures:normal;font-variant-caps:normal;font-variant-numeric:normal;font-feature-settings:normal;text-align:start;writing-mode:lr-tb;text-anchor:start;fill:#ff0000;stroke-width:0.26458332"
         id="path9877" />
      <path
         d="m 47.694007,265.10774 v 0.31006 h -2.914551 q 0.04134,0.65456 0.392741,0.99907 0.354845,0.34107 0.985297,0.34107 0.36518,0 0.706245,-0.0896 0.344509,-0.0896 0.682129,-0.26872 v 0.59944 q -0.341065,0.1447 -0.699355,0.22049 -0.35829,0.0758 -0.726915,0.0758 -0.923285,0 -1.464165,-0.53743 -0.537435,-0.53744 -0.537435,-1.45383 0,-0.9474 0.509874,-1.50206 0.513319,-0.55811 1.381483,-0.55811 0.778592,0 1.229899,0.50298 0.454753,0.49954 0.454753,1.36082 z m -0.633898,-0.18604 q -0.0069,-0.52021 -0.292833,-0.83027 -0.282498,-0.31005 -0.751031,-0.31005 -0.530544,0 -0.850938,0.29972 -0.316949,0.29972 -0.36518,0.84405 z"
         style="font-style:normal;font-variant:normal;font-weight:normal;font-stretch:normal;font-size:7.05555534px;font-family:sans-serif;-inkscape-font-specification:'sans-serif, Normal';font-variant-ligatures:normal;font-variant-caps:normal;font-variant-numeric:normal;font-feature-settings:normal;text-align:start;writing-mode:lr-tb;text-anchor:start;fill:#ff0000;stroke-width:0.26458332"
         id="path9879" />
      <path
         d="m 48.734426,261.8349 h 0.633897 v 5.36057 h -0.633897 z"
         style="font-style:normal;font-variant:normal;font-weight:normal;font-stretch:normal;font-size:7.05555534px;font-family:sans-serif;-inkscape-font-specification:'sans-serif, Normal';font-variant-ligatures:normal;font-variant-caps:normal;font-variant-numeric:normal;font-feature-settings:normal;text-align:start;writing-mode:lr-tb;text-anchor:start;fill:#ff0000;stroke-width:0.26458332"
         id="path9881" />
      <path
         d="m 52.444794,265.25588 q -0.768257,0 -1.064535,0.1757 -0.296278,0.1757 -0.296278,0.59944 0,0.33762 0.220486,0.53744 0.223931,0.19637 0.606337,0.19637 0.527099,0 0.844048,-0.37207 0.320394,-0.37552 0.320394,-0.99563 v -0.14125 z m 1.26435,-0.26183 v 2.20142 h -0.633898 v -0.58567 q -0.217041,0.3514 -0.54088,0.52021 -0.323839,0.16536 -0.792372,0.16536 -0.592556,0 -0.943956,-0.33073 -0.347955,-0.33417 -0.347955,-0.89228 0,-0.65112 0.434082,-0.98185 0.437528,-0.33073 1.302246,-0.33073 h 0.888835 v -0.062 q 0,-0.43753 -0.289388,-0.67524 -0.285943,-0.24115 -0.806152,-0.24115 -0.330729,0 -0.644233,0.0792 -0.313504,0.0792 -0.602892,0.23771 v -0.58566 q 0.347955,-0.13436 0.675239,-0.19982 0.327284,-0.0689 0.637343,-0.0689 0.837158,0 1.250569,0.43408 0.413412,0.43408 0.413412,1.31603 z"
         style="font-style:normal;font-variant:normal;font-weight:normal;font-stretch:normal;font-size:7.05555534px;font-family:sans-serif;-inkscape-font-specification:'sans-serif, Normal';font-variant-ligatures:normal;font-variant-caps:normal;font-variant-numeric:normal;font-feature-settings:normal;text-align:start;writing-mode:lr-tb;text-anchor:start;fill:#ff0000;stroke-width:0.26458332"
         id="path9883" />
      <path
         d="m 55.645287,262.24142 v 1.09554 h 1.305691 v 0.49265 h -1.305691 v 2.09461 q 0,0.47198 0.127469,0.60634 0.130913,0.13436 0.527099,0.13436 h 0.651123 v 0.53055 h -0.651123 q -0.733805,0 -1.012858,-0.27217 -0.279052,-0.27561 -0.279052,-0.99908 v -2.09461 h -0.465088 v -0.49265 h 0.465088 v -1.09554 z"
         style="font-style:normal;font-variant:normal;font-weight:normal;font-stretch:normal;font-size:7.05555534px;font-family:sans-serif;-inkscape-font-specification:'sans-serif, Normal';font-variant-ligatures:normal;font-variant-caps:normal;font-variant-numeric:normal;font-feature-settings:normal;text-align:start;writing-mode:lr-tb;text-anchor:start;fill:#ff0000;stroke-width:0.26458332"
         id="path9885" />
      <path
         d="m 57.788137,263.33696 h 0.633898 v 3.85851 h -0.633898 z m 0,-1.50206 h 0.633898 v 0.8027 h -0.633898 z"
         style="font-style:normal;font-variant:normal;font-weight:normal;font-stretch:normal;font-size:7.05555534px;font-family:sans-serif;-inkscape-font-specification:'sans-serif, Normal';font-variant-ligatures:normal;font-variant-caps:normal;font-variant-numeric:normal;font-feature-settings:normal;text-align:start;writing-mode:lr-tb;text-anchor:start;fill:#ff0000;stroke-width:0.26458332"
         id="path9887" />
      <path
         d="m 61.240122,263.78138 q -0.509874,0 -0.806152,0.39963 -0.296278,0.39618 -0.296278,1.08865 0,0.69246 0.292833,1.09209 0.296278,0.39619 0.809597,0.39619 0.506429,0 0.802708,-0.39963 0.296278,-0.39963 0.296278,-1.08865 0,-0.68558 -0.296278,-1.08521 -0.296279,-0.40307 -0.802708,-0.40307 z m 0,-0.53744 q 0.826823,0 1.298801,0.53744 0.471978,0.53743 0.471978,1.48828 0,0.9474 -0.471978,1.48828 -0.471978,0.53743 -1.298801,0.53743 -0.830268,0 -1.302246,-0.53743 -0.468533,-0.54088 -0.468533,-1.48828 0,-0.95085 0.468533,-1.48828 0.471978,-0.53744 1.302246,-0.53744 z"
         style="font-style:normal;font-variant:normal;font-weight:normal;font-stretch:normal;font-size:7.05555534px;font-family:sans-serif;-inkscape-font-specification:'sans-serif, Normal';font-variant-ligatures:normal;font-variant-caps:normal;font-variant-numeric:normal;font-feature-settings:normal;text-align:start;writing-mode:lr-tb;text-anchor:start;fill:#ff0000;stroke-width:0.26458332"
         id="path9889" />
      <path
         d="m 67.265594,264.86658 v 2.32889 h -0.633898 v -2.30822 q 0,-0.54777 -0.213596,-0.81993 -0.213595,-0.27216 -0.640787,-0.27216 -0.513319,0 -0.809598,0.32728 -0.296278,0.32728 -0.296278,0.89228 v 2.18075 h -0.637343 v -3.85851 h 0.637343 v 0.59944 q 0.227376,-0.34795 0.53399,-0.5202 0.310058,-0.17226 0.713135,-0.17226 0.664903,0 1.005967,0.41341 0.341065,0.40997 0.341065,1.20923 z"
         style="font-style:normal;font-variant:normal;font-weight:normal;font-stretch:normal;font-size:7.05555534px;font-family:sans-serif;-inkscape-font-specification:'sans-serif, Normal';font-variant-ligatures:normal;font-variant-caps:normal;font-variant-numeric:normal;font-feature-settings:normal;text-align:start;writing-mode:lr-tb;text-anchor:start;fill:#ff0000;stroke-width:0.26458332"
         id="path9891" />
      <path
         d="m 70.996633,263.45065 v 0.59944 q -0.268718,-0.1378 -0.558106,-0.2067 -0.289388,-0.0689 -0.599446,-0.0689 -0.471979,0 -0.70969,0.14469 -0.234267,0.14469 -0.234267,0.43408 0,0.22049 0.16881,0.34796 0.16881,0.12402 0.678684,0.23771 l 0.217041,0.0482 q 0.675239,0.14469 0.957736,0.40997 0.285943,0.26182 0.285943,0.7338 0,0.53744 -0.427192,0.85094 -0.423746,0.3135 -1.167887,0.3135 -0.310058,0 -0.647678,-0.062 -0.334174,-0.0586 -0.706244,-0.17914 v -0.65457 q 0.351399,0.18259 0.692464,0.27561 0.341064,0.0896 0.675239,0.0896 0.447862,0 0.689019,-0.15159 0.241156,-0.15503 0.241156,-0.43408 0,-0.25838 -0.1757,-0.39618 -0.172254,-0.13781 -0.761366,-0.26528 l -0.220486,-0.0517 q -0.589111,-0.12403 -0.850938,-0.37896 -0.261828,-0.25839 -0.261828,-0.70625 0,-0.54432 0.385851,-0.8406 0.385851,-0.29628 1.09554,-0.29628 0.3514,0 0.661459,0.0517 0.310058,0.0517 0.571886,0.15503 z"
         style="font-style:normal;font-variant:normal;font-weight:normal;font-stretch:normal;font-size:7.05555534px;font-family:sans-serif;-inkscape-font-specification:'sans-serif, Normal';font-variant-ligatures:normal;font-variant-caps:normal;font-variant-numeric:normal;font-feature-settings:normal;text-align:start;writing-mode:lr-tb;text-anchor:start;fill:#ff0000;stroke-width:0.26458332"
         id="path9893" />
    </g>
    <g
       aria-label="patterns"
       style="font-style:normal;font-variant:normal;font-weight:normal;font-stretch:normal;font-size:7.05555534px;line-height:1.25;font-family:sans-serif;-inkscape-font-specification:'sans-serif, Normal';font-variant-ligatures:normal;font-variant-caps:normal;font-variant-numeric:normal;font-feature-settings:normal;text-align:start;letter-spacing:0px;word-spacing:0px;writing-mode:lr-tb;text-anchor:start;fill:#ff0000;fill-opacity:1;stroke:none;stroke-width:0.26458332"
       id="text9735-3">
      <path
         d="m 48.125665,218.05916 v 2.04639 h -0.637343 v -5.32612 h 0.637343 v 0.58567 q 0.199815,-0.34451 0.502983,-0.50988 0.306614,-0.1688 0.730361,-0.1688 0.702799,0 1.140326,0.5581 0.440972,0.55811 0.440972,1.46761 0,0.90951 -0.440972,1.46761 -0.437527,0.55811 -1.140326,0.55811 -0.423747,0 -0.730361,-0.16537 -0.303168,-0.16881 -0.502983,-0.51332 z m 2.156629,-1.34703 q 0,-0.69935 -0.289388,-1.09554 -0.285943,-0.39963 -0.788927,-0.39963 -0.502984,0 -0.792372,0.39963 -0.285942,0.39619 -0.285942,1.09554 0,0.69936 0.285942,1.09899 0.289388,0.39618 0.792372,0.39618 0.502984,0 0.788927,-0.39618 0.289388,-0.39963 0.289388,-1.09899 z"
         style="font-style:normal;font-variant:normal;font-weight:normal;font-stretch:normal;font-size:7.05555534px;font-family:sans-serif;-inkscape-font-specification:'sans-serif, Normal';font-variant-ligatures:normal;font-variant-caps:normal;font-variant-numeric:normal;font-feature-settings:normal;text-align:start;writing-mode:lr-tb;text-anchor:start;fill:#ff0000;stroke-width:0.26458332"
         id="path9860" />
      <path
         d="m 53.744615,216.69835 q -0.768256,0 -1.064534,0.1757 -0.296279,0.1757 -0.296279,0.59945 0,0.33762 0.220486,0.53743 0.223932,0.19637 0.606337,0.19637 0.5271,0 0.844049,-0.37207 0.320393,-0.37551 0.320393,-0.99563 v -0.14125 z m 1.26435,-0.26183 v 2.20142 h -0.633898 v -0.58567 q -0.217041,0.3514 -0.54088,0.52021 -0.323838,0.16537 -0.792371,0.16537 -0.592557,0 -0.943957,-0.33073 -0.347954,-0.33418 -0.347954,-0.89228 0,-0.65112 0.434082,-0.98185 0.437527,-0.33073 1.302246,-0.33073 h 0.888834 v -0.062 q 0,-0.43753 -0.289388,-0.67524 -0.285942,-0.24116 -0.806152,-0.24116 -0.330729,0 -0.644233,0.0792 -0.313503,0.0792 -0.602891,0.23771 v -0.58567 q 0.347954,-0.13436 0.675238,-0.19981 0.327284,-0.0689 0.637343,-0.0689 0.837158,0 1.25057,0.43408 0.413411,0.43408 0.413411,1.31602 z"
         style="font-style:normal;font-variant:normal;font-weight:normal;font-stretch:normal;font-size:7.05555534px;font-family:sans-serif;-inkscape-font-specification:'sans-serif, Normal';font-variant-ligatures:normal;font-variant-caps:normal;font-variant-numeric:normal;font-feature-settings:normal;text-align:start;writing-mode:lr-tb;text-anchor:start;fill:#ff0000;stroke-width:0.26458332"
         id="path9862" />
      <path
         d="m 56.945109,213.68389 v 1.09554 H 58.2508 v 0.49265 h -1.305691 v 2.09462 q 0,0.47198 0.127469,0.60634 0.130913,0.13435 0.527099,0.13435 H 58.2508 v 0.53055 h -0.651123 q -0.733805,0 -1.012858,-0.27216 -0.279053,-0.27561 -0.279053,-0.99908 v -2.09462 h -0.465088 v -0.49265 h 0.465088 v -1.09554 z"
         style="font-style:normal;font-variant:normal;font-weight:normal;font-stretch:normal;font-size:7.05555534px;font-family:sans-serif;-inkscape-font-specification:'sans-serif, Normal';font-variant-ligatures:normal;font-variant-caps:normal;font-variant-numeric:normal;font-feature-settings:normal;text-align:start;writing-mode:lr-tb;text-anchor:start;fill:#ff0000;stroke-width:0.26458332"
         id="path9864" />
      <path
         d="m 59.714965,213.68389 v 1.09554 h 1.305692 v 0.49265 h -1.305692 v 2.09462 q 0,0.47198 0.127469,0.60634 0.130914,0.13435 0.5271,0.13435 h 0.651123 v 0.53055 h -0.651123 q -0.733806,0 -1.012858,-0.27216 -0.279053,-0.27561 -0.279053,-0.99908 v -2.09462 h -0.465088 v -0.49265 h 0.465088 v -1.09554 z"
         style="font-style:normal;font-variant:normal;font-weight:normal;font-stretch:normal;font-size:7.05555534px;font-family:sans-serif;-inkscape-font-specification:'sans-serif, Normal';font-variant-ligatures:normal;font-variant-caps:normal;font-variant-numeric:normal;font-feature-settings:normal;text-align:start;writing-mode:lr-tb;text-anchor:start;fill:#ff0000;stroke-width:0.26458332"
         id="path9866" />
      <path
         d="m 65.158216,216.55021 v 0.31006 h -2.914551 q 0.04134,0.65457 0.392741,0.99908 0.354845,0.34106 0.985297,0.34106 0.365181,0 0.706245,-0.0896 0.344509,-0.0896 0.682129,-0.26872 v 0.59945 q -0.341065,0.14469 -0.699355,0.22049 -0.358289,0.0758 -0.726915,0.0758 -0.923285,0 -1.464165,-0.53744 -0.537435,-0.53743 -0.537435,-1.45383 0,-0.9474 0.509874,-1.50206 0.513319,-0.5581 1.381483,-0.5581 0.778592,0 1.229899,0.50298 0.454753,0.49954 0.454753,1.36081 z m -0.633898,-0.18603 q -0.0069,-0.52021 -0.292833,-0.83027 -0.282498,-0.31006 -0.751031,-0.31006 -0.530544,0 -0.850938,0.29972 -0.316949,0.29973 -0.36518,0.84405 z"
         style="font-style:normal;font-variant:normal;font-weight:normal;font-stretch:normal;font-size:7.05555534px;font-family:sans-serif;-inkscape-font-specification:'sans-serif, Normal';font-variant-ligatures:normal;font-variant-caps:normal;font-variant-numeric:normal;font-feature-settings:normal;text-align:start;writing-mode:lr-tb;text-anchor:start;fill:#ff0000;stroke-width:0.26458332"
         id="path9868" />
      <path
         d="m 68.434502,215.37199 q -0.106798,-0.062 -0.234267,-0.0896 -0.124023,-0.031 -0.275607,-0.031 -0.537435,0 -0.826823,0.3514 -0.285943,0.34796 -0.285943,1.00252 v 2.03261 h -0.637343 v -3.85851 h 0.637343 v 0.59945 q 0.199815,-0.3514 0.520209,-0.52021 0.320394,-0.17225 0.778592,-0.17225 0.06546,0 0.144694,0.0103 0.07924,0.007 0.1757,0.0241 z"
         style="font-style:normal;font-variant:normal;font-weight:normal;font-stretch:normal;font-size:7.05555534px;font-family:sans-serif;-inkscape-font-specification:'sans-serif, Normal';font-variant-ligatures:normal;font-variant-caps:normal;font-variant-numeric:normal;font-feature-settings:normal;text-align:start;writing-mode:lr-tb;text-anchor:start;fill:#ff0000;stroke-width:0.26458332"
         id="path9870" />
      <path
         d="m 72.189655,216.30905 v 2.32889 h -0.633898 v -2.30821 q 0,-0.54777 -0.213596,-0.81994 -0.213596,-0.27216 -0.640787,-0.27216 -0.51332,0 -0.809598,0.32728 -0.296278,0.32729 -0.296278,0.89228 v 2.18075 h -0.637343 v -3.85851 h 0.637343 v 0.59945 q 0.227376,-0.34796 0.53399,-0.52021 0.310058,-0.17225 0.713134,-0.17225 0.664904,0 1.005968,0.41341 0.341065,0.40996 0.341065,1.20922 z"
         style="font-style:normal;font-variant:normal;font-weight:normal;font-stretch:normal;font-size:7.05555534px;font-family:sans-serif;-inkscape-font-specification:'sans-serif, Normal';font-variant-ligatures:normal;font-variant-caps:normal;font-variant-numeric:normal;font-feature-settings:normal;text-align:start;writing-mode:lr-tb;text-anchor:start;fill:#ff0000;stroke-width:0.26458332"
         id="path9872" />
      <path
         d="m 75.920693,214.89312 v 0.59945 q -0.268717,-0.13781 -0.558105,-0.20671 -0.289388,-0.0689 -0.599447,-0.0689 -0.471978,0 -0.709689,0.14469 -0.234267,0.1447 -0.234267,0.43409 0,0.22048 0.16881,0.34795 0.16881,0.12402 0.678684,0.23771 l 0.217041,0.0482 q 0.675238,0.1447 0.957736,0.40997 0.285943,0.26183 0.285943,0.7338 0,0.53744 -0.427192,0.85094 -0.423746,0.31351 -1.167887,0.31351 -0.310059,0 -0.647678,-0.062 -0.334174,-0.0586 -0.706245,-0.17915 v -0.65457 q 0.3514,0.18259 0.692465,0.27561 0.341064,0.0896 0.675238,0.0896 0.447863,0 0.689019,-0.15158 0.241157,-0.15503 0.241157,-0.43408 0,-0.25839 -0.1757,-0.39619 -0.172255,-0.1378 -0.761366,-0.26527 l -0.220486,-0.0517 q -0.589111,-0.12402 -0.850939,-0.37896 -0.261827,-0.25838 -0.261827,-0.70624 0,-0.54433 0.385851,-0.84061 0.385851,-0.29627 1.09554,-0.29627 0.3514,0 0.661459,0.0517 0.310058,0.0517 0.571885,0.15503 z"
         style="font-style:normal;font-variant:normal;font-weight:normal;font-stretch:normal;font-size:7.05555534px;font-family:sans-serif;-inkscape-font-specification:'sans-serif, Normal';font-variant-ligatures:normal;font-variant-caps:normal;font-variant-numeric:normal;font-feature-settings:normal;text-align:start;writing-mode:lr-tb;text-anchor:start;fill:#ff0000;stroke-width:0.26458332"
         id="path9874" />
    </g>
    <g
       aria-label="principles"
       style="font-style:normal;font-variant:normal;font-weight:normal;font-stretch:normal;font-size:7.05555534px;line-height:1.25;font-family:sans-serif;-inkscape-font-specification:'sans-serif, Normal';font-variant-ligatures:normal;font-variant-caps:normal;font-variant-numeric:normal;font-feature-settings:normal;text-align:start;letter-spacing:0px;word-spacing:0px;writing-mode:lr-tb;text-anchor:start;fill:#ff0000;fill-opacity:1;stroke:none;stroke-width:0.26458332"
       id="text9735-3-4">
      <path
         d="m 87.997178,170.59202 v 2.04638 h -0.637343 v -5.32612 h 0.637343 v 0.58567 q 0.199815,-0.34451 0.502984,-0.50987 0.306613,-0.16881 0.73036,-0.16881 0.7028,0 1.140327,0.5581 0.440972,0.55811 0.440972,1.46761 0,0.90951 -0.440972,1.46761 -0.437527,0.55811 -1.140327,0.55811 -0.423747,0 -0.73036,-0.16537 -0.303169,-0.1688 -0.502984,-0.51331 z m 2.15663,-1.34704 q 0,-0.69935 -0.289388,-1.09554 -0.285943,-0.39963 -0.788927,-0.39963 -0.502984,0 -0.792372,0.39963 -0.285943,0.39619 -0.285943,1.09554 0,0.69936 0.285943,1.09899 0.289388,0.39618 0.792372,0.39618 0.502984,0 0.788927,-0.39618 0.289388,-0.39963 0.289388,-1.09899 z"
         style="font-style:normal;font-variant:normal;font-weight:normal;font-stretch:normal;font-size:7.05555534px;font-family:sans-serif;-inkscape-font-specification:'sans-serif, Normal';font-variant-ligatures:normal;font-variant-caps:normal;font-variant-numeric:normal;font-feature-settings:normal;text-align:start;writing-mode:lr-tb;text-anchor:start;fill:#ff0000;stroke-width:0.26458332"
         id="path9839" />
      <path
         d="m 94.098442,167.90484 q -0.106798,-0.062 -0.234267,-0.0896 -0.124023,-0.031 -0.275607,-0.031 -0.537435,0 -0.826823,0.3514 -0.285943,0.34796 -0.285943,1.00253 v 2.0326 h -0.637343 v -3.85851 h 0.637343 v 0.59945 q 0.199815,-0.3514 0.520209,-0.52021 0.320394,-0.17225 0.778592,-0.17225 0.06546,0 0.144694,0.0103 0.07924,0.007 0.1757,0.0241 z"
         style="font-style:normal;font-variant:normal;font-weight:normal;font-stretch:normal;font-size:7.05555534px;font-family:sans-serif;-inkscape-font-specification:'sans-serif, Normal';font-variant-ligatures:normal;font-variant-caps:normal;font-variant-numeric:normal;font-feature-settings:normal;text-align:start;writing-mode:lr-tb;text-anchor:start;fill:#ff0000;stroke-width:0.26458332"
         id="path9841" />
      <path
         d="m 94.770235,167.31228 h 0.633898 v 3.85851 h -0.633898 z m 0,-1.50206 h 0.633898 v 0.80271 h -0.633898 z"
         style="font-style:normal;font-variant:normal;font-weight:normal;font-stretch:normal;font-size:7.05555534px;font-family:sans-serif;-inkscape-font-specification:'sans-serif, Normal';font-variant-ligatures:normal;font-variant-caps:normal;font-variant-numeric:normal;font-feature-settings:normal;text-align:start;writing-mode:lr-tb;text-anchor:start;fill:#ff0000;stroke-width:0.26458332"
         id="path9843" />
      <path
         d="m 99.934433,168.84191 v 2.32888 h -0.633897 v -2.30821 q 0,-0.54777 -0.213596,-0.81993 -0.213596,-0.27217 -0.640788,-0.27217 -0.513319,0 -0.809597,0.32729 -0.296278,0.32728 -0.296278,0.89228 v 2.18074 h -0.637343 v -3.85851 h 0.637343 v 0.59945 q 0.227376,-0.34795 0.533989,-0.52021 0.310059,-0.17225 0.713135,-0.17225 0.664904,0 1.005968,0.41341 0.341064,0.40997 0.341064,1.20923 z"
         style="font-style:normal;font-variant:normal;font-weight:normal;font-stretch:normal;font-size:7.05555534px;font-family:sans-serif;-inkscape-font-specification:'sans-serif, Normal';font-variant-ligatures:normal;font-variant-caps:normal;font-variant-numeric:normal;font-feature-settings:normal;text-align:start;writing-mode:lr-tb;text-anchor:start;fill:#ff0000;stroke-width:0.26458332"
         id="path9845" />
      <path
         d="m 103.98242,167.46042 v 0.59256 q -0.26872,-0.14814 -0.54088,-0.22049 -0.26872,-0.0758 -0.54433,-0.0758 -0.61667,0 -0.95773,0.39274 -0.34107,0.3893 -0.34107,1.09554 0,0.70625 0.34107,1.09899 0.34106,0.38929 0.95773,0.38929 0.27561,0 0.54433,-0.0723 0.27216,-0.0758 0.54088,-0.22393 v 0.58566 q -0.26527,0.12403 -0.55122,0.18604 -0.28249,0.062 -0.60289,0.062 -0.87161,0 -1.38493,-0.54777 -0.51331,-0.54777 -0.51331,-1.47795 0,-0.94395 0.51676,-1.48483 0.52021,-0.54088 1.42282,-0.54088 0.29284,0 0.57189,0.062 0.27905,0.0586 0.54088,0.17914 z"
         style="font-style:normal;font-variant:normal;font-weight:normal;font-stretch:normal;font-size:7.05555534px;font-family:sans-serif;-inkscape-font-specification:'sans-serif, Normal';font-variant-ligatures:normal;font-variant-caps:normal;font-variant-numeric:normal;font-feature-settings:normal;text-align:start;writing-mode:lr-tb;text-anchor:start;fill:#ff0000;stroke-width:0.26458332"
         id="path9847" />
      <path
         d="m 105.09174,167.31228 h 0.6339 v 3.85851 h -0.6339 z m 0,-1.50206 h 0.6339 v 0.80271 h -0.6339 z"
         style="font-style:normal;font-variant:normal;font-weight:normal;font-stretch:normal;font-size:7.05555534px;font-family:sans-serif;-inkscape-font-specification:'sans-serif, Normal';font-variant-ligatures:normal;font-variant-caps:normal;font-variant-numeric:normal;font-feature-settings:normal;text-align:start;writing-mode:lr-tb;text-anchor:start;fill:#ff0000;stroke-width:0.26458332"
         id="path9849" />
      <path
         d="m 107.66178,170.59202 v 2.04638 h -0.63734 v -5.32612 h 0.63734 v 0.58567 q 0.19982,-0.34451 0.50299,-0.50987 0.30661,-0.16881 0.73036,-0.16881 0.7028,0 1.14032,0.5581 0.44098,0.55811 0.44098,1.46761 0,0.90951 -0.44098,1.46761 -0.43752,0.55811 -1.14032,0.55811 -0.42375,0 -0.73036,-0.16537 -0.30317,-0.1688 -0.50299,-0.51331 z m 2.15663,-1.34704 q 0,-0.69935 -0.28939,-1.09554 -0.28594,-0.39963 -0.78892,-0.39963 -0.50299,0 -0.79237,0.39963 -0.28595,0.39619 -0.28595,1.09554 0,0.69936 0.28595,1.09899 0.28938,0.39618 0.79237,0.39618 0.50298,0 0.78892,-0.39618 0.28939,-0.39963 0.28939,-1.09899 z"
         style="font-style:normal;font-variant:normal;font-weight:normal;font-stretch:normal;font-size:7.05555534px;font-family:sans-serif;-inkscape-font-specification:'sans-serif, Normal';font-variant-ligatures:normal;font-variant-caps:normal;font-variant-numeric:normal;font-feature-settings:normal;text-align:start;writing-mode:lr-tb;text-anchor:start;fill:#ff0000;stroke-width:0.26458332"
         id="path9851" />
      <path
         d="m 111.52718,165.81022 h 0.6339 v 5.36057 h -0.6339 z"
         style="font-style:normal;font-variant:normal;font-weight:normal;font-stretch:normal;font-size:7.05555534px;font-family:sans-serif;-inkscape-font-specification:'sans-serif, Normal';font-variant-ligatures:normal;font-variant-caps:normal;font-variant-numeric:normal;font-feature-settings:normal;text-align:start;writing-mode:lr-tb;text-anchor:start;fill:#ff0000;stroke-width:0.26458332"
         id="path9853" />
      <path
         d="m 116.78439,169.08306 v 0.31006 h -2.91455 q 0.0414,0.65457 0.39274,0.99908 0.35485,0.34106 0.9853,0.34106 0.36518,0 0.70625,-0.0896 0.34451,-0.0896 0.68213,-0.26872 v 0.59945 q -0.34107,0.1447 -0.69936,0.22049 -0.35829,0.0758 -0.72691,0.0758 -0.92329,0 -1.46417,-0.53744 -0.53743,-0.53743 -0.53743,-1.45383 0,-0.9474 0.50987,-1.50206 0.51332,-0.5581 1.38148,-0.5581 0.77859,0 1.2299,0.50298 0.45475,0.49954 0.45475,1.36081 z m -0.63389,-0.18603 q -0.007,-0.52021 -0.29284,-0.83027 -0.28249,-0.31006 -0.75103,-0.31006 -0.53054,0 -0.85094,0.29973 -0.31694,0.29972 -0.36518,0.84404 z"
         style="font-style:normal;font-variant:normal;font-weight:normal;font-stretch:normal;font-size:7.05555534px;font-family:sans-serif;-inkscape-font-specification:'sans-serif, Normal';font-variant-ligatures:normal;font-variant-caps:normal;font-variant-numeric:normal;font-feature-settings:normal;text-align:start;writing-mode:lr-tb;text-anchor:start;fill:#ff0000;stroke-width:0.26458332"
         id="path9855" />
      <path
         d="m 120.28461,167.42597 v 0.59945 q -0.26872,-0.1378 -0.5581,-0.20671 -0.28939,-0.0689 -0.59945,-0.0689 -0.47198,0 -0.70969,0.1447 -0.23427,0.14469 -0.23427,0.43408 0,0.22048 0.16881,0.34795 0.16881,0.12403 0.67869,0.23771 l 0.21704,0.0482 q 0.67524,0.14469 0.95773,0.40996 0.28595,0.26183 0.28595,0.73381 0,0.53743 -0.42719,0.85094 -0.42375,0.3135 -1.16789,0.3135 -0.31006,0 -0.64768,-0.062 -0.33417,-0.0586 -0.70624,-0.17915 v -0.65457 q 0.3514,0.18259 0.69246,0.27561 0.34106,0.0896 0.67524,0.0896 0.44786,0 0.68902,-0.15158 0.24115,-0.15503 0.24115,-0.43408 0,-0.25838 -0.1757,-0.39619 -0.17225,-0.1378 -0.76136,-0.26527 l -0.22049,-0.0517 q -0.58911,-0.12402 -0.85094,-0.37896 -0.26182,-0.25838 -0.26182,-0.70624 0,-0.54433 0.38585,-0.8406 0.38585,-0.29628 1.09554,-0.29628 0.3514,0 0.66146,0.0517 0.31005,0.0517 0.57188,0.15503 z"
         style="font-style:normal;font-variant:normal;font-weight:normal;font-stretch:normal;font-size:7.05555534px;font-family:sans-serif;-inkscape-font-specification:'sans-serif, Normal';font-variant-ligatures:normal;font-variant-caps:normal;font-variant-numeric:normal;font-feature-settings:normal;text-align:start;writing-mode:lr-tb;text-anchor:start;fill:#ff0000;stroke-width:0.26458332"
         id="path9857" />
    </g>
  </g>
</svg>
